<?xml version="1.0" encoding="UTF-8" standalone="no"?>
<!-- Created with Inkscape (http://www.inkscape.org/) -->

<svg
   width="512"
   height="512"
   viewBox="0 0 135.46666 135.46667"
   version="1.1"
   id="svg5"
   xml:space="preserve"
   xmlns="http://www.w3.org/2000/svg"
   xmlns:svg="http://www.w3.org/2000/svg"><defs
     id="defs2" /><path
     style="fill:#000000;stroke-width:0.999999"
     d="m 99.555504,133.8177 c -0.03761,-0.10792 -0.09835,-12.68974 -0.135073,-27.9596 -0.06068,-25.22705 -0.09787,-27.951602 -0.407103,-29.823575 -0.802744,-4.859406 -2.156715,-8.114706 -4.225525,-10.159239 -0.744649,-0.735917 -0.9844,-0.880329 -2.540108,-1.529997 -1.187205,-0.49578 -1.795925,-1.440081 -1.795925,-2.785985 0,-0.961666 0.06674,-1.113207 0.866075,-1.965581 1.64658,-1.755901 4.007087,-2.860404 7.472753,-3.496567 1.699252,-0.311919 3.013382,-0.358949 9.810382,-0.351099 7.19285,0.0083 8.01447,0.04351 9.8377,0.421551 4.31012,0.893675 7.35087,2.693517 7.89795,4.674849 0.44113,1.597667 -0.56163,3.258023 -2.27829,3.772347 -0.46631,0.139709 -1.2663,0.65458 -1.85927,1.196624 -1.87406,1.713114 -3.24819,4.684811 -4.13746,8.947746 -0.40214,1.927782 -0.41048,2.461955 -0.47688,30.559346 l -0.0676,28.59727 -1.31875,0.0211 c -1.09144,0.0175 -4.05815,0.008 -4.60524,-0.015 -0.0808,-0.004 -0.14714,-10.16218 -0.14714,-22.57513 V 88.777808 l -2.99216,0.05415 -2.99217,0.05416 -0.0499,22.514842 -0.0499,22.51482 -1.22547,0.0182 c -0.67402,0.01 -1.96509,0.032 -2.86904,0.049 -0.94813,0.0178 -1.6725,-0.0522 -1.711893,-0.16531 z M 111.49378,80.449198 c 0.5013,-8.089877 2.15717,-13.816567 5.00792,-17.319363 0.74016,-0.909457 0.79955,-1.051376 0.49271,-1.177246 -0.47306,-0.19405 -16.29454,-0.183112 -16.99338,0.01175 l -0.55542,0.154873 0.67798,0.750439 c 2.88017,3.188015 4.82013,9.487342 5.15551,16.740797 0.10037,2.170496 0.19734,2.854727 0.43091,3.040324 0.21047,0.167233 1.10648,0.226436 2.96965,0.196207 l 2.66824,-0.04328 z M 18.051115,109.22012 V 84.52442 L 16.521461,83.635629 C 13.212667,81.713089 10.913747,78.754077 9.5489278,74.661072 9.1252452,73.390452 9.1236656,73.319857 9.1236656,55.628921 c 0,-16.811318 0.019577,-17.819484 0.3678052,-18.934047 1.6525942,-5.289474 5.1991052,-8.948513 10.2167632,-10.540919 1.546409,-0.490768 5.256845,-0.679323 7.091636,-0.36038 2.919245,0.507454 5.563903,1.934988 7.830801,4.226904 2.94287,2.97535 4.417472,6.50608 4.413191,10.566759 -0.007,6.662139 -3.77296,11.334848 -9.114349,11.308939 -4.146444,-0.0201 -7.929294,-3.253076 -8.765075,-7.490964 -0.203057,-1.029589 -0.183398,-1.194198 0.246017,-2.059899 0.569987,-1.149084 1.519668,-1.824388 2.565654,-1.824388 1.603532,0 2.71518,1.063802 3.087101,2.954248 0.169886,0.863532 0.400137,1.386768 0.775366,1.761998 0.587815,0.587813 1.810178,0.890243 2.757348,0.682209 1.745317,-0.383337 2.977346,-4.035918 2.3657,-7.013569 -1.201848,-5.850919 -7.496318,-9.056135 -12.826126,-6.531214 -1.657992,0.785445 -3.504522,2.663877 -4.275394,4.349235 -0.556463,1.216603 -0.629284,1.604581 -0.765564,4.078672 -0.204481,3.712177 -0.04746,8.348817 0.336044,9.921223 0.776241,3.18287 2.639753,5.478006 6.838997,8.423011 4.425349,3.103579 5.690953,4.1042 7.38096,5.835583 3.901347,3.996871 5.718018,8.320928 6.250821,14.878254 0.156018,1.920171 0.20507,10.45328 0.162978,28.352014 l -0.06021,25.60511 h -2.943116 -2.94312 l -0.09811,-24.03544 -0.09811,-24.035451 -2.550699,-0.0566 c -1.402884,-0.03113 -2.749365,-0.0073 -2.992171,0.05278 l -0.441465,0.109394 V 109.8841 133.91579 H 20.994227 18.05111 Z M 29.66567,78.977641 c -0.09021,-1.035715 -0.609558,-3.516375 -0.944794,-4.512777 -1.091135,-3.243104 -2.812555,-5.238022 -7.628541,-8.840574 -1.834539,-1.372309 -3.895243,-3.005244 -4.579337,-3.62874 -0.854172,-0.778516 -1.289861,-1.059108 -1.390833,-0.895733 -0.208516,0.337387 -0.222605,8.418916 -0.01825,10.442529 0.38791,3.840376 2.838747,6.781245 6.53932,7.846818 0.987426,0.284325 1.857892,0.342847 4.648563,0.312519 l 3.433637,-0.03731 z M 57.234406,95.115727 C 57.181859,68.962787 57.084217,55.324342 56.934852,53.274428 55.983626,40.219685 54.185972,31.685267 51.00423,25.118619 49.446057,21.902776 48.498806,20.520446 46.415611,18.422406 44.833584,16.829102 44.409832,16.523271 42.577082,15.652043 41.443983,15.113404 40.032148,14.506668 39.439672,14.303739 37.302821,13.571846 35.894039,11.588541 36.213913,9.7624565 36.900384,5.8435459 42.522883,3.5889702 55.723,1.9394757 c 4.14958,-0.5185335 16.834824,-0.5210185 21.190437,-0.00415 9.302255,1.1038724 15.230512,2.7656007 17.643494,4.9455806 1.035376,0.9354012 1.78107,2.3689654 1.78107,3.4240277 0,1.1113 -0.814306,2.634268 -1.719669,3.216249 -0.403112,0.259125 -1.684727,0.843993 -2.848046,1.299711 -2.650603,1.038347 -4.175327,2.015648 -5.946256,3.811372 -1.679986,1.703504 -2.740496,3.231109 -3.998358,5.759432 -3.231988,6.496328 -5.106379,14.675546 -6.124328,26.724444 -0.152816,1.808792 -0.260552,15.342321 -0.33973,42.675183 l -0.115944,40.026375 -3.000648,0.0542 -3.000639,0.0542 0.07586,-39.491953 c 0.08016,-41.729941 0.07557,-41.503334 1.001755,-49.498556 1.69114,-14.598696 5.393144,-24.603424 11.293874,-30.521889 1.666321,-1.671334 3.25227,-2.873811 4.886043,-3.704639 0.471467,-0.239718 0.780496,-0.508386 0.686724,-0.596998 C 86.640991,9.5945384 82.611673,8.6994129 78.286888,8.134477 69.872183,7.0352856 60.224097,7.1915075 51.60264,8.5665491 c -1.34893,0.2151413 -3.114799,0.568537 -3.924157,0.785323 -0.809356,0.2167862 -1.670217,0.4419097 -1.913025,0.5002745 -0.553134,0.1329604 -0.574516,0.5803234 -0.03591,0.7512714 1.015665,0.32236 3.981072,2.569036 5.501164,4.167838 6.52649,6.864442 10.0634,18.073968 11.591609,36.737301 0.124159,1.516281 0.234217,17.714517 0.288288,42.429922 l 0.08746,39.977311 H 60.255216 57.312361 Z M 92.21764,127.69479 c -0.161871,-0.0592 -0.501363,-0.295 -0.754425,-0.52407 -1.570049,-1.42123 -1.274651,-3.96691 0.565212,-4.8708 1.985991,-0.97569 4.309574,0.49795 4.309574,2.73317 0,0.89776 -0.73598,2.07485 -1.565548,2.50384 -0.557528,0.28829 -1.960785,0.37501 -2.554813,0.15786 z m -0.253596,-12.24016 c -2.636513,-1.39141 -1.628078,-5.4777 1.351257,-5.47544 1.690333,0.002 3.020424,1.23587 3.021967,2.80497 7.41e-4,0.72308 -0.39973,1.74316 -0.868188,2.21161 -0.891326,0.89134 -2.328968,1.07954 -3.505036,0.45886 z m 0.134492,-11.94676 c -0.227381,-0.0918 -0.690924,-0.50374 -1.030097,-0.91521 -1.250342,-1.51688 -0.62657,-3.779554 1.238301,-4.491755 3.325314,-1.269949 5.645012,3.357405 2.61055,5.207555 -0.670137,0.40859 -2.058169,0.50677 -2.818754,0.19941 z M 2.1582898,79.527726 C 0.44538333,79.054683 -0.50417806,76.990025 0.28727265,75.45953 0.71966871,74.623356 1.6561785,73.929266 2.5574413,73.776999 c 1.0678199,-0.180407 2.4366516,0.497345 2.9743511,1.472696 0.5975219,1.083851 0.4098893,2.566689 -0.4350808,3.438478 -0.3619467,0.373438 -0.7959149,0.715573 -0.9643705,0.760298 -0.8750927,0.232343 -1.3505815,0.251433 -1.9740513,0.07926 z M 1.3027894,67.087694 c -2.39433,-1.626992 -1.23887109,-5.376332 1.6568585,-5.376332 2.1965305,0 3.5849545,2.318228 2.5829195,4.312659 -0.7846506,1.561744 -2.7727769,2.060526 -4.239778,1.063673 z M 2.0835912,55.432084 C 0.96960837,55.086472 2.3228346e-6,53.810087 2.3228346e-6,52.689246 c 0,-2.714223 3.1568297771654,-4.001656 5.0847848771654,-2.0737 0.6565438,0.656541 0.7033445,0.784733 0.7033445,1.926374 0,0.917885 -0.097902,1.353518 -0.3924105,1.746039 -0.7555216,1.006954 -2.1744242,1.497092 -3.31213,1.144125 z M 105.36356,43.245629 c -5.09466,-1.357791 -7.860125,-3.659761 -8.755508,-7.288111 -0.269435,-1.091826 -0.286913,-1.508624 -0.101891,-2.429891 0.683864,-3.405241 3.327676,-6.041316 7.392929,-7.371325 1.19106,-0.389666 1.76915,-0.44702 4.50568,-0.44702 2.72319,0 3.31763,0.05839 4.4844,0.440448 0.73979,0.242245 1.42422,0.440446 1.52096,0.440446 0.10182,0 0.17357,-4.880394 0.17036,-11.586239 -0.006,-12.6536984 -0.0503,-12.1416425 1.12382,-13.0155057 0.54894,-0.4085582 1.91742,-0.6304598 2.6909,-0.4363308 0.27374,0.068707 1.04044,0.609187 1.70378,1.2010731 1.38203,1.2331765 2.53437,1.6693813 4.38137,1.6585396 2.25575,-0.013236 3.89302,-0.5839506 5.75985,-2.0077261 1.77943,-1.3571319 3.80284,-1.1867311 4.78536,0.402998 0.66533,1.0765326 0.58262,2.2593564 -0.27963,3.9992903 -1.94189,3.9185066 -5.27526,5.7110666 -11.67463,6.2781656 l -2.59976,0.230385 v 11.016736 c 0,11.642811 -0.0364,12.170692 -0.93771,13.623453 -2.21779,3.574461 -6.23035,5.531354 -11.25986,5.49133 -1.22303,-0.0098 -2.53272,-0.100054 -2.91042,-0.200716 z"
     id="path301" /></svg>
