<?xml version="1.0" encoding="UTF-8" standalone="no"?>
<!-- Created with Inkscape (http://www.inkscape.org/) -->

<svg
   width="512"
   height="512"
   viewBox="0 0 135.46666 135.46667"
   version="1.1"
   id="svg5"
   xml:space="preserve"
   xmlns="http://www.w3.org/2000/svg"
   xmlns:svg="http://www.w3.org/2000/svg"><defs
     id="defs2" /><path
     style="fill:#000000;stroke-width:0.999998"
     d="m 54.663953,135.12765 c -2.998911,-0.95994 -5.269661,-3.51631 -5.754921,-6.47878 -0.096,-0.58611 -0.172792,-7.67683 -0.173392,-16.01101 l -0.0012,-14.958984 -0.787773,-0.354212 c -0.433274,-0.194822 -0.9963,-0.580771 -1.251168,-0.857669 L 46.232105,95.963534 46.139424,76.932877 C 46.088441,66.466015 45.989557,57.902218 45.91966,57.902218 c -0.14223,0 -2.08435,1.77263 -6.082412,5.551598 -2.159563,2.041216 -2.960864,2.674151 -4.077878,3.221036 -1.366207,0.668888 -1.428555,0.68063 -3.614483,0.68063 -2.191542,0 -2.246118,-0.01037 -3.705915,-0.703866 C 26.984905,65.960794 26.771444,65.761565 16.920313,55.900846 7.6866194,46.658166 6.8373145,45.755869 6.3102368,44.628737 4.3224686,40.377999 5.9919114,35.464571 10.116394,33.426625 c 1.301597,-0.64313 1.586756,-0.711106 3.292997,-0.784976 2.144687,-0.09286 3.592096,0.278014 5.096399,1.30584 0.467214,0.319229 3.489578,3.212186 6.716363,6.428791 3.226785,3.216608 6.126044,6.094057 6.442801,6.394331 l 0.575921,0.545951 6.624945,-6.600914 6.624947,-6.600916 1.297506,-0.380514 c 2.444708,-0.716946 4.930596,-0.961221 10.962542,-1.07723 5.659871,-0.10885 5.784948,-0.10333 6.409648,0.282753 0.350424,0.216574 0.776632,0.666826 0.947131,1.000562 0.273119,0.534607 0.844898,3.602574 1.713644,9.194824 0.147796,0.951378 0.348972,2.077428 0.447059,2.502335 0.09809,0.424904 0.180382,1.050591 0.182874,1.390412 0.0029,0.394959 0.08438,0.591249 0.225842,0.544093 0.213159,-0.07105 0.394582,-0.91225 0.970184,-4.498397 1.0202,-6.35611 1.4414,-8.602246 1.712689,-9.133267 0.170498,-0.333736 0.596706,-0.783988 0.94713,-1.000562 0.6247,-0.386085 0.749778,-0.391603 6.409649,-0.282753 6.031947,0.116009 8.517833,0.360284 10.962541,1.07723 l 1.297507,0.380514 6.618277,6.594264 c 5.97343,5.951752 6.64896,6.568804 6.93316,6.332998 0.66015,-0.547708 11.74996,-11.690573 11.74996,-11.806162 0,-0.06683 -4.36875,-4.503114 -9.70831,-9.858393 C 94.994817,14.771312 95.357331,15.210572 95.805561,13.545965 c 0.401241,-1.490096 2.255342,-2.360748 3.590296,-1.685935 0.222679,0.112563 5.034193,4.816904 10.692263,10.45409 l 10.28735,10.249433 1.78515,0.08434 c 1.60173,0.07567 1.93054,0.156183 3.20033,0.783586 4.11422,2.03288 5.78181,6.951413 3.79633,11.19726 -0.52709,1.127134 -1.37638,2.02943 -10.61008,11.27211 -9.85112,9.860719 -10.06458,10.059948 -11.51875,10.750769 -1.45979,0.6935 -1.51437,0.703867 -3.70592,0.703867 -2.19546,0 -2.24232,-0.009 -3.614481,-0.690663 -1.105178,-0.549063 -1.960201,-1.226956 -4.170558,-3.306556 -4.786241,-4.503113 -5.841386,-5.457456 -5.981169,-5.409754 -0.07461,0.02546 -0.177354,8.589258 -0.228327,19.030659 l -0.09268,18.984367 -0.463395,0.503461 c -0.254867,0.276899 -0.817893,0.662847 -1.251167,0.857669 l -0.787773,0.354211 -0.0012,14.958981 c -5.56e-4,8.52891 -0.07652,15.41961 -0.176577,16.03057 -0.370505,2.26218 -2.21296,4.83043 -4.186529,5.83572 -1.915051,0.97549 -1.849004,0.97119 -14.715009,0.96046 -10.908343,-0.0103 -12.058767,-0.0389 -12.989839,-0.33696 z m 25.324893,-5.5033 c 0.281451,-0.21019 0.683709,-0.61247 0.893899,-0.89397 0.378781,-0.50724 0.38217,-0.64774 0.38217,-15.83665 V 97.568849 H 67.733775 54.202632 l -0.05465,14.457931 c -0.03006,7.95186 -0.0027,14.90043 0.06095,15.44125 0.135398,1.15182 0.887712,2.15701 1.819764,2.43145 0.336122,0.0989 5.431324,0.15808 12.015995,0.13943 11.23189,-0.0318 11.441388,-0.0391 11.944145,-0.41456 z M 83.95261,71.756514 c 0,-12.735912 0.06795,-20.581221 0.181706,-20.977854 0.376304,-1.312087 1.812824,-2.199569 3.132967,-1.93554 0.743698,0.148739 1.131807,0.492656 10.89317,9.652785 1.760257,1.651834 3.450007,3.132382 3.755007,3.290105 0.65463,0.338517 1.94583,0.361324 2.6444,0.04671 0.27275,-0.122837 4.75534,-4.42854 9.9613,-9.568229 9.47776,-9.357096 10.21024,-10.171936 10.21024,-11.358424 0,-1.905782 -2.52146,-3.789938 -3.78894,-2.831271 -0.19789,0.149679 -0.5272,0.272143 -0.73183,0.272143 -0.24225,0 -2.99422,2.611509 -7.88863,7.485969 -4.13413,4.117284 -7.69879,7.578847 -7.92148,7.692362 -0.52919,0.269768 -1.71241,0.252808 -2.22394,-0.03187 -0.22248,-0.123821 -3.623371,-3.424016 -7.557539,-7.333769 -8.067824,-8.017759 -7.191215,-7.387054 -10.851791,-7.807661 -2.585456,-0.297076 -8.632514,-0.468678 -8.768387,-0.24883 -0.06183,0.100043 -0.283627,1.21762 -0.492877,2.483492 -0.209248,1.265872 -0.463719,2.760347 -0.565492,3.321056 -0.101769,0.560709 -0.520921,3.104749 -0.931443,5.653423 -0.410522,2.548672 -1.115298,6.886052 -1.566166,9.638621 -0.45087,2.752569 -0.875966,5.421726 -0.944659,5.931459 -0.156411,1.160626 -0.461242,1.76892 -1.196473,2.387577 -0.823623,0.693034 -2.312335,0.693034 -3.135958,0 -0.734972,-0.618439 -1.039868,-1.226567 -1.197043,-2.387577 -0.06901,-0.509733 -0.534583,-3.429123 -1.03461,-6.487534 -0.500029,-3.058409 -1.336524,-8.188193 -1.858877,-11.399522 -0.522357,-3.21133 -1.0894,-6.589482 -1.260097,-7.507004 l -0.31036,-1.668223 -3.151088,0.01302 c -3.360734,0.01388 -6.864297,0.314399 -8.405627,0.720993 -0.890514,0.234913 -1.33491,0.638673 -8.097418,7.356959 -3.935355,3.909622 -7.337224,7.209711 -7.559707,7.333531 -0.553338,0.307954 -1.707944,0.294145 -2.313644,-0.02766 -0.275293,-0.14629 -3.753566,-3.530081 -7.729497,-7.519565 -3.975931,-3.989484 -7.538436,-7.414787 -7.916676,-7.611785 -2.872811,-1.496246 -5.7817111,1.62919 -3.960185,4.254976 0.678854,0.978589 18.956734,18.979871 19.539027,19.243342 0.271475,0.122835 0.878154,0.227099 1.348175,0.231698 1.026206,0.01003 1.713325,-0.408229 3.597997,-2.190197 10.192588,-9.637138 11.581882,-10.878658 12.344101,-11.031101 1.320142,-0.26403 2.756664,0.623452 3.132967,1.93554 0.113751,0.396631 0.181706,8.241942 0.181706,20.977853 V 92.100785 H 67.733775 83.95261 Z M 64.932494,32.230339 C 60.899451,31.639276 56.668281,28.823237 54.209708,25.093832 48.410087,16.296401 52.380698,4.5338983 62.358389,0.95424489 c 5.205946,-1.86771475 10.815715,-0.96557031 15.292045,2.45921621 7.73145,5.915239 8.424268,17.5003809 1.453939,24.3124409 -1.816012,1.774778 -3.342266,2.771181 -5.62038,3.669212 -2.309273,0.910318 -5.747651,1.246143 -8.551499,0.835225 z m 5.625422,-5.544994 c 2.526022,-0.656133 4.689816,-2.20079 6.158095,-4.396049 1.370164,-2.048567 1.758807,-3.401677 1.749939,-6.092651 -0.0064,-1.923999 -0.07122,-2.393005 -0.480528,-3.4739 -1.747245,-4.6140413 -5.479241,-7.2552233 -10.251647,-7.2552233 -4.772913,0 -8.512743,2.6473039 -10.249409,7.2552233 -0.657254,1.743901 -0.699038,4.884558 -0.09071,6.818043 0.841666,2.675114 2.917795,5.100337 5.502394,6.427605 2.046996,1.051191 5.228838,1.348931 7.661864,0.716952 z"
     id="path247" /></svg>
