<?xml version="1.0" encoding="UTF-8" standalone="no"?>
<!-- Created with Inkscape (http://www.inkscape.org/) -->

<svg
   width="512"
   height="512"
   viewBox="0 0 135.46666 135.46667"
   version="1.1"
   id="svg5"
   xml:space="preserve"
   sodipodi:docname="presencial.svg"
   inkscape:version="1.2.2 (1:1.2.2+202212051550+b0a8486541)"
   xmlns:inkscape="http://www.inkscape.org/namespaces/inkscape"
   xmlns:sodipodi="http://sodipodi.sourceforge.net/DTD/sodipodi-0.dtd"
   xmlns="http://www.w3.org/2000/svg"
   xmlns:svg="http://www.w3.org/2000/svg"><sodipodi:namedview
     id="namedview307"
     pagecolor="#ffffff"
     bordercolor="#666666"
     borderopacity="1.0"
     inkscape:showpageshadow="2"
     inkscape:pageopacity="0.0"
     inkscape:pagecheckerboard="0"
     inkscape:deskcolor="#d1d1d1"
     showgrid="false"
     inkscape:zoom="0.2938222"
     inkscape:cx="359.06068"
     inkscape:cy="30.630769"
     inkscape:window-width="1920"
     inkscape:window-height="1022"
     inkscape:window-x="0"
     inkscape:window-y="0"
     inkscape:window-maximized="1"
     inkscape:current-layer="svg5" /><defs
     id="defs2" /><path
     style="fill:#000000;stroke-width:0.999996"
     d="m 65.801905,127.72383 c -2.760059,-0.58119 -4.183342,-1.49304 -7.583417,-4.8584 l -2.501849,-2.47631 -0.634963,0.22293 c -2.010092,0.70573 -5.059925,0.37138 -7.422085,-0.81368 -1.487601,-0.7463 -3.383304,-2.64157 -4.13154,-4.13058 -0.56766,-1.12968 -1.212959,-3.48162 -1.212959,-4.42092 0,-0.42225 -0.1035,-0.48091 -1.04344,-0.59138 -3.603474,-0.42351 -6.804868,-2.63292 -8.196826,-5.65694 -0.564747,-1.22692 -1.04735,-3.07084 -1.04735,-4.00173 v -0.71743 l -1.019055,-0.12604 c -2.092807,-0.258828 -2.996307,-0.522083 -4.337087,-1.263671 -2.908222,-1.608535 -5.101081,-5.032812 -5.120831,-7.99645 -0.0079,-1.180326 -0.136448,-1.326094 -1.169697,-1.326094 -1.12122,0 -3.101321,-0.586416 -4.392139,-1.300746 -1.300834,-0.719876 -3.213793,-2.670718 -3.850033,-3.92628 -0.919214,-1.813981 -1.121696,-2.694707 -1.148906,-4.997332 -0.01409,-1.192931 -0.07028,-2.21359 -0.124791,-2.268118 C 10.81043,77.020181 9.7628806,76.800141 8.5371124,76.585788 1.1498385,75.29403 0.99761793,75.254564 0.38163392,74.471471 0.09494648,74.107004 3.0108392e-7,73.685446 3.0108392e-7,72.776974 3.0108392e-7,71.407108 0.35845855,70.764982 1.3531416,70.352966 c 0.8153257,-0.337714 1.545917,-0.25041 9.5088024,1.136336 l 3.194755,0.556372 1.960785,-1.88367 c 1.418587,-1.362796 2.310613,-2.048952 3.225911,-2.481408 4.888843,-2.309861 10.708154,-0.521796 13.231697,4.065638 0.847253,1.540179 1.104816,2.352162 1.267263,3.995074 l 0.129126,1.305993 1.230391,0.135698 c 4.932478,0.544016 8.777111,4.343843 9.270821,9.16279 l 0.12308,1.201291 1.839325,0.312911 c 2.492562,0.424034 4.069629,1.216422 5.685284,2.856522 1.592679,1.616776 2.503479,3.409712 2.768678,5.450216 0.259485,1.996552 0.228988,1.94106 1.066571,1.94106 1.154255,0 2.935103,0.535844 4.279484,1.287672 3.130093,1.750449 5.072896,5.094899 5.081604,8.747759 0.0066,2.9086 -0.922978,5.05021 -3.233668,7.44719 -0.888862,0.92205 -1.616109,1.72819 -1.616109,1.79142 0,0.28644 4.023153,4.08513 4.826975,4.55767 0.816822,0.48018 1.076858,0.52858 2.840207,0.52858 2.256264,0 3.209945,-0.36326 4.532149,-1.72632 1.262032,-1.30102 1.66896,-2.28701 1.746689,-4.23216 0.05862,-1.4667 0.0052,-1.8232 -0.40701,-2.71749 -0.260952,-0.56613 -0.790455,-1.4051 -1.176667,-1.86438 -0.807732,-0.96056 -1.042252,-1.86438 -0.729593,-2.81176 0.488383,-1.47981 2.287183,-2.32135 3.568788,-1.66959 0.233191,0.11859 1.122759,0.89679 1.976828,1.72935 0.854069,0.83255 1.895072,1.69321 2.313351,1.91256 3.151976,1.65296 6.935278,0.3943 8.581768,-2.85506 0.487547,-0.96221 0.555812,-1.30556 0.546583,-2.74942 -0.01197,-1.87832 -0.27627,-2.64985 -1.426064,-4.16348 -1.204464,-1.585614 -1.237581,-2.757629 -0.109766,-3.885445 1.29569,-1.295684 2.733075,-1.075177 4.458716,0.684028 1.506793,1.536104 2.481778,2.204517 3.77647,2.589007 1.3032,0.387 2.185088,0.39333 3.426772,0.0246 2.774122,-0.823836 4.564332,-3.226201 4.559492,-6.11862 -0.003,-1.587132 -0.39303,-2.701408 -1.40673,-4.015345 -1.2751,-1.652784 -1.22099,-3.237798 0.14726,-4.314068 0.37315,-0.293516 0.79496,-0.405355 1.52882,-0.405355 0.85087,0 1.15033,0.104433 1.86635,0.650903 1.70902,1.304334 2.44273,1.576615 4.24972,1.577092 1.9544,5.76e-4 2.98161,-0.389042 4.3487,-1.649176 1.343,-1.237944 1.94751,-2.647874 1.95426,-4.557987 0.01,-2.832225 0.98681,-1.702987 -17.833622,-20.616502 L 81.789871,44.46315 80.444014,44.97293 c -0.740224,0.280379 -2.26301,0.868468 -3.383972,1.306866 -15.422954,6.031786 -16.311158,6.285121 -22.031019,6.283733 -2.887562,-8.07e-4 -3.864448,-0.07796 -5.629066,-0.445205 -5.571632,-1.159525 -10.553733,-3.750063 -14.354465,-7.463868 -2.107745,-2.059541 -2.827911,-3.288832 -2.967733,-5.065809 -0.11559,-1.468991 0.413987,-3.076761 1.416358,-4.300024 0.756459,-0.923159 0.541682,-0.811169 16.973424,-8.850337 3.149365,-1.540817 6.244118,-3.056467 6.877233,-3.368114 L 58.495881,22.503541 42.301564,22.40551 26.107247,22.307479 24.16619,21.779244 C 23.098606,21.488706 20.609199,20.860871 18.634168,20.384048 16.659144,19.907224 13.034212,19.027766 10.578771,18.429695 8.1233383,17.831625 5.1980164,17.120244 4.0780659,16.848848 2.9581158,16.577451 1.7589923,16.23724 1.4133579,16.092822 0.54472683,15.729886 0.00162162,14.768851 7.2660528e-4,13.593141 6.6316049e-5,12.738192 0.07739062,12.567467 0.75870438,11.919346 1.2046479,11.495134 1.7749194,11.159815 2.1420711,11.105927 c 0.3547096,-0.05206 1.8093778,0.194949 3.3660499,0.571571 1.507761,0.364789 4.3136407,1.04534 6.235286,1.512337 1.921652,0.466996 4.978822,1.208535 6.79371,1.647863 1.814887,0.43933 4.522666,1.098906 6.017279,1.465724 l 2.717487,0.666943 21.279521,5.83e-4 21.27952,5.74e-4 5.798248,-2.835302 C 88.132692,8.0220901 87.82536,8.1372665 93.170835,7.5622153 c 1.398551,-0.150451 5.183993,0.3563086 7.024065,0.9403159 2.84621,0.9033374 5.62665,2.4596338 6.61312,3.7015698 0.64603,0.813314 2.49624,1.878393 4.43972,2.555748 1.06891,0.372544 1.97072,0.524297 3.5659,0.600066 2.24037,0.106414 2.43929,0.08018 6.79371,-0.895751 1.49462,-0.334981 3.54729,-0.787753 4.56149,-1.006157 1.0142,-0.218403 2.58646,-0.561129 3.49391,-0.761612 2.71292,-0.599371 3.49883,-0.645004 4.26646,-0.247738 1.34952,0.698413 1.91859,2.289507 1.26848,3.546672 -0.4359,0.84293 -1.26632,1.3289 -2.84497,1.66488 -0.78555,0.16719 -3.0879,0.649612 -5.11629,1.072048 -2.02842,0.422437 -4.77987,1.005513 -6.11434,1.295726 -2.16326,0.470452 -2.81566,0.526768 -6.01729,0.519416 -3.40056,-0.0079 -3.67843,-0.03709 -5.24085,-0.552379 -3.22367,-1.063162 -5.72177,-2.441985 -6.66515,-3.678805 -1.07331,-1.407177 -4.511476,-2.876773 -7.625685,-3.259487 -2.687911,-0.330324 -5.717049,0.151069 -8.152586,1.295615 -3.087447,1.450904 -13.818768,6.735352 -15.310184,7.539227 -0.32028,0.172628 -1.499471,0.743073 -2.620431,1.267657 -1.120962,0.524583 -4.745887,2.282124 -8.055396,3.905648 -3.309501,1.623523 -7.327497,3.58803 -8.928869,4.365568 -1.601372,0.777541 -5.608591,2.733837 -8.904938,4.347326 -3.296342,1.613487 -6.069626,2.933615 -6.162863,2.933615 -0.49181,0 -0.03104,0.825055 1.043653,1.868834 3.12115,3.031329 6.435779,4.883155 10.807106,6.03775 1.498846,0.395886 2.459042,0.507778 4.963994,0.578449 4.936389,0.139272 5.555095,-0.03216 19.410586,-5.378626 9.092189,-3.508425 8.906538,-3.458181 10.070602,-2.725426 0.332868,0.20954 8.422636,8.201851 17.977251,17.760689 9.55462,9.55884 17.38714,17.379708 17.40563,17.379708 0.0185,0 0.36887,-0.33192 0.77864,-0.737612 0.71795,-0.71082 0.82958,-0.750326 3.07253,-1.087415 1.28014,-0.192383 3.28835,-0.507531 4.46269,-0.700312 5.21222,-0.855654 5.69578,-0.891135 6.46711,-0.474605 1.45413,0.78526 1.99051,2.434962 1.20861,3.717295 -0.67622,1.109027 -1.04416,1.221443 -6.65651,2.033653 l -5.28954,0.765487 -0.71415,0.694039 -0.71414,0.694049 0.008,2.44889 c 0.007,2.050008 -0.0632,2.654386 -0.42889,3.710576 -0.72096,2.082694 -1.29787,3.046012 -2.72224,4.545492 -2.15874,2.272591 -4.68587,3.393647 -7.91714,3.512126 l -1.68106,0.06164 -0.12937,1.915652 c -0.21811,3.229785 -1.24796,5.552213 -3.40139,7.670543 -1.45893,1.43516 -3.59362,2.54905 -5.501977,2.87092 -1.231559,0.20773 -3.556492,0.18841 -5.126704,-0.0427 -0.329463,-0.0486 -0.411071,0.13954 -0.636437,1.46634 -0.704929,4.15006 -3.136101,7.30208 -6.822849,8.84581 -1.525743,0.63887 -4.126074,0.92286 -5.990614,0.65425 -0.828472,-0.11936 -1.534171,-0.18915 -1.56822,-0.15511 -0.03404,0.034 -0.149777,0.69601 -0.25718,1.47102 -0.608398,4.39029 -3.434049,7.8023 -7.62717,9.20988 -1.865589,0.62626 -4.300308,0.78564 -6.126654,0.40106 z M 54.363262,115.33292 c 0.941429,-0.46161 4.134372,-3.5755 5.009246,-4.88523 0.43871,-0.65676 0.509168,-0.96777 0.509168,-2.24745 0,-1.31372 -0.06786,-1.59547 -0.587974,-2.44048 -1.073981,-1.74495 -2.990601,-2.63169 -5.027829,-2.3262 -0.784183,0.1176 -1.086085,0.3554 -3.416347,2.69101 -1.405883,1.40909 -2.644438,2.78036 -2.752355,3.04726 -0.31265,0.77326 -0.243241,2.91767 0.122509,3.78506 0.987684,2.34233 3.908516,3.47195 6.143582,2.37603 z M 43.524324,105.1537 c 0.455884,-0.18156 0.996672,-0.5528 1.201743,-0.82495 0.205079,-0.27216 1.354631,-1.46116 2.554568,-2.64222 1.997481,-1.96606 2.192992,-2.222693 2.315442,-3.039259 0.250028,-1.667318 -0.340007,-3.140831 -1.757216,-4.38831 -1.133281,-0.997556 -1.966704,-1.275166 -3.429839,-1.142499 -1.468438,0.133153 -2.255197,0.647037 -4.498412,2.938189 -1.924595,1.965735 -2.637411,3.204048 -2.640375,4.586939 -0.0052,2.31056 2.446248,4.77725 4.798291,4.82855 0.344807,0.008 0.999914,-0.13488 1.455798,-0.31644 z M 33.328309,94.51298 c 1.058634,-0.442327 4.860172,-4.253189 5.417826,-5.431119 1.0858,-2.293528 0.05025,-4.83512 -2.486465,-6.10274 -2.330937,-1.164788 -3.719923,-0.686862 -6.658517,2.291102 -2.342461,2.373844 -2.814537,3.162673 -2.814537,4.703012 0,1.366486 0.211542,1.958746 1.076776,3.014646 1.306189,1.594032 3.700665,2.262264 5.464917,1.525099 z M 22.807444,83.961507 c 1.08949,-0.499887 4.854259,-4.235156 5.333839,-5.292051 0.741603,-1.634343 0.408691,-3.66573 -0.843944,-5.149493 -1.249788,-1.480393 -3.769002,-2.047055 -5.460442,-1.228243 -0.708627,0.343034 -3.428811,2.95671 -4.745719,4.559887 -1.839816,2.239766 -0.888373,5.549917 2.028255,7.056455 0.996414,0.514689 2.631109,0.538379 3.688011,0.05348 z"
     id="path438" /><path
     style="fill:#000000;stroke-width:0.999991"
     d="m 70.089095,84.428572 c -2.49022,-0.663675 -3.84195,-1.788853 -4.279599,-3.562353 -0.131699,-0.533672 -0.140241,-0.737399 -0.04978,-1.187704 0.334274,-1.664447 1.626539,-2.952932 3.613588,-3.603026 0.582173,-0.190465 0.864743,-0.2185 2.202336,-0.2185 1.331058,0 1.621611,0.02854 2.191923,0.215287 0.361589,0.118407 0.696137,0.215286 0.743422,0.215286 0.04978,0 0.08485,-2.385486 0.08328,-5.663233 -0.0025,-6.184994 -0.02456,-5.934706 0.549326,-6.361841 0.268308,-0.1997 0.93721,-0.308163 1.315279,-0.213275 0.133799,0.03358 0.50856,0.297764 0.832787,0.587072 0.675522,0.602764 1.238785,0.815977 2.141569,0.810677 1.102571,-0.0065 1.902847,-0.285429 2.815342,-0.981355 0.869761,-0.663352 1.858784,-0.580062 2.339025,0.196981 0.325213,0.526198 0.284788,1.104349 -0.136671,1.954811 -0.949175,1.915324 -2.578496,2.791509 -5.706442,3.068701 l -1.270732,0.112609 v 5.384866 c 0,5.690884 -0.0179,5.948906 -0.458343,6.659 -1.084043,1.747159 -3.045335,2.703668 -5.503712,2.684105 -0.597792,-0.0048 -1.23796,-0.04891 -1.422571,-0.09811 z"
     id="path320" /></svg>
