<?xml version="1.0" encoding="UTF-8" standalone="no"?>
<!-- Created with Inkscape (http://www.inkscape.org/) -->

<svg
   width="512"
   height="512"
   viewBox="0 0 135.46666 135.46667"
   version="1.1"
   id="svg5"
   xml:space="preserve"
   sodipodi:docname="prueba.svg"
   inkscape:version="1.2.2 (1:1.2.2+202212051550+b0a8486541)"
   xmlns:inkscape="http://www.inkscape.org/namespaces/inkscape"
   xmlns:sodipodi="http://sodipodi.sourceforge.net/DTD/sodipodi-0.dtd"
   xmlns="http://www.w3.org/2000/svg"
   xmlns:svg="http://www.w3.org/2000/svg"><sodipodi:namedview
     id="namedview5"
     pagecolor="#ffffff"
     bordercolor="#666666"
     borderopacity="1.0"
     inkscape:showpageshadow="2"
     inkscape:pageopacity="0.0"
     inkscape:pagecheckerboard="0"
     inkscape:deskcolor="#d1d1d1"
     showgrid="false"
     inkscape:zoom="0.83105469"
     inkscape:cx="280.96827"
     inkscape:cy="209.3725"
     inkscape:window-width="1920"
     inkscape:window-height="1022"
     inkscape:window-x="0"
     inkscape:window-y="0"
     inkscape:window-maximized="1"
     inkscape:current-layer="svg5" /><defs
     id="defs2" /><path
     style="fill:#000000;stroke-width:0.999996"
     d="m 109.66373,35.737651 c -4.3669,-1.163832 -6.73732,-3.136968 -7.50479,-6.247012 -0.23095,-0.935859 -0.24593,-1.293119 -0.0873,-2.082783 0.58619,-2.918806 2.85233,-5.17832 6.33686,-6.318339 1.02091,-0.334002 1.51643,-0.383164 3.86206,-0.383164 2.33417,0 2.84369,0.05005 3.8438,0.377531 0.63409,0.207641 1.22076,0.377529 1.30368,0.377529 0.0873,0 0.14878,-4.183236 0.14604,-9.931158 C 117.5598,0.68412501 117.52101,1.1230345 118.52739,0.37400151 118.9979,0.02380453 120.1709,-0.16639797 120.83389,0 c 0.23463,0.05888928 0.89182,0.52216503 1.46039,1.0295003 1.18461,1.0570196 2.17236,1.4309125 3.7555,1.4216192 1.93349,-0.011348 3.33687,-0.5005337 4.93704,-1.72092452 1.52523,-1.16326615 3.2596,-1.01720812 4.10176,0.34543072 0.5703,0.9227505 0.49941,1.9366096 -0.23967,3.4279958 -1.66449,3.3587514 -4.5217,4.8952465 -10.00693,5.3813365 l -2.22838,0.197474 v 9.443008 c 0,9.979647 -0.0314,10.43212 -0.80376,11.677355 -1.901,3.063854 -5.34036,4.741207 -9.65142,4.706901 -1.0483,-0.0084 -2.17091,-0.08576 -2.49465,-0.172045 z"
     id="path320" /><path
     style="fill:#000000;stroke-width:0.999998"
     d="m 16.541719,128.95959 c -0.0043,-11.1599 -0.425395,-14.96541 -2.234003,-20.17598 C 12.742668,104.27472 11.48345,101.81952 7.848686,96.189842 3.1638247,88.933739 0.54262598,80.82724 0.08223153,72.170774 -0.54246247,60.425121 2.4194279,48.420589 8.0350039,39.938211 c 1.8468201,-2.78964 3.2205831,-4.470288 5.5953991,-6.845359 6.318266,-6.318953 14.436696,-10.408418 24.2246,-12.202577 3.849699,-0.705662 6.642296,-0.929128 11.704874,-0.93663 5.071199,-0.0076 7.645427,0.17346 11.419923,0.802846 12.684971,2.115188 22.310835,7.671211 28.725453,16.580264 2.819559,3.915975 5.500522,9.473554 6.835047,14.16886 0.563431,1.982353 1.053126,3.957111 1.361198,5.489187 0.611142,3.039346 0.656894,3.294893 0.813317,4.543249 0.109865,0.876461 0.291974,1.466588 0.629108,2.038394 0.260991,0.442639 0.694787,1.200631 0.963957,1.684422 0.26917,0.483795 1.86056,3.235389 3.53643,6.114656 4.67491,8.031897 6.2694,10.833825 6.51624,11.450724 0.14554,0.363691 0.22379,1.169162 0.21959,2.260251 -0.006,1.576589 -0.0433,1.770613 -0.53086,2.773256 -0.91033,1.871722 -1.78147,2.519175 -6.59433,4.901158 -2.29325,1.134963 -4.222899,2.142862 -4.288144,2.239784 -0.06517,0.09698 -0.120094,3.009585 -0.121965,6.472614 -0.0039,6.95897 -0.121561,8.30744 -0.945078,10.82323 -1.009472,3.08386 -2.518264,5.55445 -4.781367,7.82933 -3.072203,3.0882 -6.613606,4.88407 -10.984797,5.57042 -1.810111,0.28423 -1.988763,0.28267 -7.265102,-0.0634 -1.174142,-0.0769 -1.816101,-0.0597 -1.894528,0.0512 -0.06527,0.0922 -0.119674,2.33102 -0.121017,4.97511 l -0.0027,4.80748 -2.300615,-0.0448 -2.300617,-0.0448 -0.04203,-7.38616 -0.04191,-7.38617 1.091392,3.2e-4 c 0.600266,1.5e-4 2.580742,0.11564 4.401047,0.25661 4.954736,0.38375 7.673044,0.36156 9.363897,-0.0765 5.608702,-1.45291 9.67775,-5.81845 10.883662,-11.67668 0.213463,-1.03706 0.256161,-2.56084 0.256161,-9.142685 V 92.067608 L 99.72715,89.37479 c 2.95126,-1.481065 5.50406,-2.815682 5.67293,-2.96585 0.53766,-0.478122 0.76414,-1.222067 0.55812,-1.833344 -0.17099,-0.507412 -1.68914,-3.162227 -8.293901,-14.503616 -3.298823,-5.664617 -3.302852,-5.672226 -3.30368,-6.248034 -5.96e-4,-0.55311 -0.560435,-4.045518 -0.913251,-5.698966 C 90.444081,44.050299 83.776452,34.617194 73.087444,29.320457 67.520904,26.562065 61.097204,25.07694 53.055962,24.68929 32.278913,23.687677 17.2923,31.259832 9.6193095,46.636144 6.7787873,52.328415 5.156229,58.961522 4.7673265,66.471315 c -0.5487642,10.59674 1.974625,19.716062 7.8983945,28.544143 3.62947,5.408922 6.130975,11.162072 7.44099,17.113322 0.902809,4.10137 0.987315,5.24813 1.073664,14.57055 l 0.08113,8.75847 H 18.902779 16.544047 Z M 45.281538,99.785912 C 38.419596,98.752909 32.486536,95.768429 27.744893,90.96453 24.384335,87.559856 21.973292,83.632217 20.370494,78.951529 c -1.761049,-5.142847 -1.960558,-12.163462 -0.4955,-17.436226 1.261164,-4.538924 3.464279,-8.621422 6.659334,-12.340137 6.536762,-7.608101 17.131065,-11.551721 27.14244,-10.103488 4.979355,0.720308 9.325454,2.416793 13.306486,5.194137 7.290367,5.086091 12.032441,13.052297 13.007125,21.850712 1.420367,12.821358 -5.489886,25.249645 -17.191885,30.920131 -5.410923,2.621991 -11.75171,3.617172 -17.516956,2.749254 z m 9.12311,-4.858847 c 9.651706,-1.8626 17.524235,-9.128564 20.178649,-18.623971 1.158213,-4.143169 1.158213,-9.610652 0,-13.753829 C 71.936109,53.079701 64.040262,45.773424 54.473484,43.941013 49.761377,43.038463 44.352575,43.512997 40.115257,45.200715 31.963608,48.447512 26.009611,55.403538 24.147056,63.856277 c -0.461597,2.094831 -0.652337,5.178608 -0.471842,7.628349 0.788012,10.694975 8.047783,19.676513 18.485822,22.870043 1.02825,0.314579 3.886703,0.865914 4.977139,0.959976 1.717663,0.14815 5.549402,-0.05614 7.266473,-0.38758 z M 42.536957,85.978886 v -2.336545 l 2.300616,-0.0448 2.300602,-0.04477 v -8.233782 -8.233773 l -2.300602,-0.0448 -2.300616,-0.04479 v -2.338254 -2.33826 l 6.982557,0.04211 6.982571,0.0421 0.04473,2.296157 0.04473,2.296152 -2.305021,0.04486 -2.305021,0.04478 v 8.233774 8.233774 l 2.300617,0.0448 2.300615,0.04479 v 2.336541 2.336529 h -7.022932 -7.022919 z m 5.865674,-28.48371 c -0.75297,-0.193282 -1.896166,-0.90617 -2.385274,-1.487446 -1.942708,-2.308775 -1.461106,-5.480235 1.079786,-7.110721 0.803043,-0.515316 0.910092,-0.539581 2.378315,-0.539154 1.78075,4.85e-4 2.456664,0.266161 3.436319,1.350516 1.006637,1.114226 1.16744,1.551026 1.166834,3.169541 -6.05e-4,1.649889 -0.245689,2.286229 -1.296193,3.365553 -1.035906,1.064317 -2.963596,1.615238 -4.379787,1.251711 z"
     id="path246" /></svg>
