<?xml version="1.0" encoding="UTF-8" standalone="no"?>
<!-- Created with Inkscape (http://www.inkscape.org/) -->

<svg
   width="512"
   height="512"
   viewBox="0 0 135.46666 135.46667"
   version="1.1"
   id="svg5"
   xml:space="preserve"
   xmlns="http://www.w3.org/2000/svg"
   xmlns:svg="http://www.w3.org/2000/svg"><defs
     id="defs2" /><g
     id="layer1"><path
       style="fill:#000000;stroke-width:1"
       d="m 20.286939,135.19914 c -6.34466,-1.17328 -11.4076671,-5.5999 -13.6139768,-11.90272 l -0.6746907,-1.92736 -0.00363,-6.84417 -0.00363,-6.84418 0.4797206,-0.51317 c 0.2639142,-0.28229 0.6524359,-0.61317 0.8635239,-0.73541 0.2660032,-0.15408 2.800074,-0.2518 8.251186,-0.31819 l 7.867422,-0.0961 0.09605,-52.131546 0.09605,-52.1315823 0.397541,-0.5417321 C 24.260905,0.91484426 24.73599,0.52026752 25.097869,0.33573686 25.719402,0.01878994 28.56871,-1.334137e-6 76.510286,-1.334137e-6 c 47.937854,0 50.791514,0.016703714137 51.422214,0.335738194137 0.36749,0.1845725 0.86474,0.63030224 1.10548,0.99059364 l 0.43767,0.6551499 -0.0502,59.6937086 -0.0502,59.693761 -0.67819,1.92737 c -2.26766,6.44447 -7.51707,10.93357 -14.00125,11.97349 -1.89967,0.30443 -92.747168,0.23635 -94.409031,-0.071 z m 78.346755,-5.60333 c 0.06634,-0.0664 -0.258066,-0.61193 -0.720241,-1.21274 -0.997787,-1.29673 -2.097411,-3.25169 -2.619765,-4.65762 -0.761709,-2.05018 -0.986788,-3.621 -1.107428,-7.72929 l -0.11818,-4.02965 -40.776281,-0.0526 c -22.426936,-0.0292 -40.981024,-0.003 -41.231324,0.0576 l -0.455084,0.10983 0.09353,4.06811 c 0.07768,3.37395 0.159101,4.27026 0.478427,5.25283 1.439707,4.43195 4.980868,7.43372 9.555718,8.10019 1.293177,0.18833 76.714184,0.27978 76.900759,0.0932 z m 16.062246,-0.28353 c 0.58044,-0.11026 1.77469,-0.55198 2.65382,-0.9815 2.71829,-1.32803 4.77138,-3.75462 5.86186,-6.92823 l 0.40713,-1.18473 V 63.034995 5.8523082 H 76.510182 29.401603 V 55.935135 106.01798 l 34.443941,0.096 c 34.063866,0.0948 34.449741,0.10021 34.968849,0.47973 0.288544,0.21128 0.698858,0.73486 0.911455,1.16393 0.359542,0.72522 0.386692,1.15354 0.386692,6.07991 0,5.77683 0.16285,7.16241 1.06618,9.07191 1.18752,2.51018 3.10717,4.43603 5.55396,5.5719 1.1714,0.54379 1.90009,0.74164 4.1256,1.12009 0.62383,0.10603 2.50234,-0.0335 3.83777,-0.28937 z M 50.866006,93.851795 c -3.569933,-0.877763 -5.723502,-2.927269 -6.489185,-6.175661 -0.373738,-1.586281 -0.370816,-2.731423 0.01257,-4.017126 0.744304,-2.506427 3.135102,-4.929712 5.908493,-5.988793 1.816494,-0.693691 3.120067,-0.930127 6.084711,-1.103718 3.303514,-0.19334 4.350357,-0.476421 4.967464,-1.343077 0.367474,-0.51626 0.377496,-1.018323 0.429277,-21.553057 l 0.05303,-21.024476 0.566496,-0.591259 c 0.663625,-0.692564 0.582029,-0.668511 6.533365,-1.925233 2.532903,-0.534843 5.166568,-1.095576 5.852576,-1.246072 0.686009,-0.150332 2.542508,-0.539522 4.125614,-0.864569 1.583063,-0.324881 3.439605,-0.715407 4.12557,-0.867448 0.686009,-0.152002 2.542551,-0.541192 4.125614,-0.864694 5.224238,-1.067556 8.600822,-1.767804 11.211896,-2.325112 2.511993,-0.536179 2.594253,-0.541566 3.262133,-0.215057 0.40129,0.196266 0.82473,0.613348 1.02212,1.006798 0.31736,0.632182 0.33407,2.214453 0.28773,26.960278 -0.0481,25.763146 -0.0569,26.304044 -0.42916,27.056239 -2.02274,4.085984 -6.877995,6.616716 -12.699502,6.619431 -4.543788,0.0021 -8.058515,-1.746216 -9.446442,-4.698875 -0.997568,-2.122207 -1.057783,-5.195589 -0.138638,-7.074303 1.256137,-2.567521 4.179815,-4.681044 7.601297,-5.494959 0.474918,-0.113167 2.212071,-0.279781 3.860321,-0.370813 2.321902,-0.128195 3.193362,-0.252222 3.869546,-0.551506 1.669595,-0.73854 1.568665,0.06138 1.637656,-12.98196 0.03347,-6.337058 0.004,-12.235487 -0.06553,-13.107611 -0.153678,-1.929116 -0.353704,-2.116946 -1.882404,-1.769724 -1.020985,0.231759 -8.328933,1.997433 -13.080381,3.160155 -1.477539,0.361629 -3.808999,0.925327 -5.180974,1.252796 -1.372017,0.327387 -3.35805,0.801847 -4.413453,1.054193 -1.055364,0.252222 -2.264271,0.518056 -2.686407,0.590381 -0.873463,0.149497 -1.724918,0.53927 -1.954714,0.894384 -0.08603,0.132797 -0.199188,9.26934 -0.251805,20.303726 l -0.09605,20.062488 -0.646713,1.27405 c -1.057366,2.082956 -3.55586,4.240199 -5.973427,5.157633 -2.922467,1.109022 -7.336379,1.44217 -10.101209,0.762426 z"
       id="path412" /></g></svg>
