<?xml version="1.0" encoding="UTF-8" standalone="no"?>
<!-- Created with Inkscape (http://www.inkscape.org/) -->

<svg
   width="512"
   height="512"
   viewBox="0 0 135.46666 135.46667"
   version="1.1"
   id="svg5"
   xml:space="preserve"
   xmlns="http://www.w3.org/2000/svg"
   xmlns:svg="http://www.w3.org/2000/svg"><defs
     id="defs2" /><path
     style="fill:#000000;stroke-width:1"
     d="m 84.481845,47.363744 c -1.750133,0 -2.626414,1.846156 -1.590766,3.351423 0.24385,0.354421 0.443475,0.702238 0.443475,0.773254 0,0.156764 -1.204444,1.03844 -1.418602,1.03844 -0.0839,0 -0.266448,-0.177455 -0.405685,-0.394381 -0.446488,-0.695633 -0.710063,-0.910303 -1.356913,-1.104976 -0.522572,-0.15726 -0.728002,-0.157805 -1.177648,-0.0033 -1.514695,0.520724 -1.929296,1.989751 -0.944767,3.348835 0.234819,0.324167 0.426251,0.638479 0.42571,0.698328 -7.5e-4,0.05985 -0.417392,0.43148 -0.926034,0.825902 -0.958319,0.743107 -1.548773,1.602315 -1.865633,2.714143 -0.18272,0.641174 0.08397,0.439607 -5.270673,3.975453 -1.319111,0.871062 -2.452492,1.561635 -2.518734,1.534563 -0.06624,-0.02703 -0.807726,-0.791168 -1.647609,-1.69832 -1.726726,-1.865029 -2.662339,-2.716912 -4.386305,-3.993217 -1.255032,-0.92915 -2.886043,-1.938252 -2.980298,-1.843991 -0.03033,0.03034 0.165136,0.791366 0.434109,1.691211 0.26898,0.899846 0.664696,2.244059 0.879521,2.987083 l 0.390504,1.350776 1.8469,1.866599 c 1.015707,1.026602 1.846576,1.916313 1.846576,1.977071 0,0.06068 -0.145192,0.215315 -0.322674,0.343667 -0.852518,0.616531 -5.300697,3.509038 -5.396319,3.509038 -0.120546,0 -0.232133,-0.347477 -1.312014,-4.087528 C 56.817989,64.803933 56.2057,62.706438 55.8675,61.562643 55.529306,60.41884 54.983113,58.546885 54.653352,57.403082 53.775338,54.357614 53.772099,54.35139 53.125575,54.125626 c -0.704307,-0.245941 -3.829322,-0.882891 -3.914406,-0.797805 -0.06489,0.06489 0.288657,1.372079 1.277131,4.720932 0.302694,1.025478 0.820899,2.80032 1.151487,3.944122 0.33058,1.143803 0.888882,3.03845 1.240633,4.210276 0.351742,1.171826 0.612109,2.157906 0.578488,2.191534 -0.03364,0.03364 -0.40886,-0.168436 -0.833656,-0.449286 -1.10541,-0.73084 -2.694184,-1.459744 -4.124354,-1.891795 -1.607362,-0.485584 -4.402144,-0.553575 -5.938631,-0.144711 -2.388597,0.635635 -4.284618,1.696146 -5.659561,3.166024 -0.982845,1.050699 -1.588611,1.941972 -2.682818,3.946388 -1.311835,2.403054 -1.80875,2.920538 -3.045543,3.172795 -0.38038,0.07762 -2.111473,0.204328 -3.846899,0.28166 -3.722314,0.165865 -6.270315,0.547194 -8.390182,1.255482 -1.81273,0.605678 -4.159237,1.730733 -4.159237,1.994199 0,0.156813 3.312601,4.899237 6.498062,9.302648 1.147,1.58555 1.584304,2.5363 1.651486,3.591405 0.216503,3.400131 -3.433247,5.495023 -6.41053,3.679593 -0.680196,-0.414764 -1.235768,-1.160168 -8.4680247,-11.36016 -3.625238,-5.112824 -3.8039828,-5.51424 -3.8052327,-8.531974 -5.597e-4,-1.831797 0.033884,-2.101513 0.3911495,-3.074615 0.2153922,-0.586665 0.652588,-1.467432 0.9715769,-1.957033 1.0502672,-1.612011 1.7225547,-2.147094 6.840117,-5.444446 0.729321,-0.469928 2.439641,-1.584435 3.800711,-2.476749 4.711908,-3.089106 6.610004,-4.084404 9.430879,-4.944446 3.982676,-1.214266 5.78342,-1.393407 14.003877,-1.393407 3.34147,0 6.075259,-0.03381 6.075259,-0.07522 0,-0.393033 -1.092677,-3.767949 -1.264211,-3.904717 -0.170162,-0.135701 -1.395065,-0.178008 -5.037792,-0.173131 -8.704809,0.01116 -11.248535,0.293225 -15.498386,1.717383 -3.388995,1.135677 -4.784143,1.88714 -10.864988,5.851417 -0.809029,0.527428 -2.906837,1.891968 -4.6614994,3.032621 -1.9476266,1.266096 -3.5737077,2.439336 -4.1747423,3.011956 -2.1296203,2.028951 -3.2365526,3.917729 -3.9683466,6.770672 -0.35433024,1.381495 -0.38752638,4.447413 -0.063304,5.85627 0.55882816,2.428382 1.1181052,3.478485 4.0781655,7.656324 l 2.3081403,3.257434 -0.1747414,0.60271 c -0.2764857,0.954553 -0.2271304,4.805532 0.080424,6.268095 0.7777534,3.698549 1.8944251,6.468629 4.0755809,10.111429 1.354511,2.26221 3.585657,5.36207 5.46867,7.59754 4.414902,5.24131 9.453508,8.56593 14.13566,9.32688 1.409878,0.22914 3.538354,0.25726 4.871448,0.0646 3.634097,-0.52519 7.678138,-2.9656 10.634691,-6.41764 1.969927,-2.30006 3.43653,-4.99545 4.77584,-8.77842 1.244209,-3.51435 1.482053,-4.04713 2.092054,-4.68088 0.608698,-0.63239 1.601618,-1.01719 3.442184,-1.3343 3.765752,-0.64882 5.530928,-1.47018 7.479005,-3.480618 1.10965,-1.145183 1.882342,-2.267055 2.499678,-3.628553 l 0.40084,-0.883726 0.905684,-0.245801 c 0.498174,-0.135147 1.293179,-0.453469 1.766473,-0.707363 1.045799,-0.561017 13.493897,-10.074979 14.448645,-11.042964 0.77919,-0.789994 1.251903,-1.54626 1.778422,-2.844636 0.449559,-1.10858 0.617763,-3.437088 0.343675,-4.757428 -0.436135,-2.100851 -2.134703,-4.38806 -3.995482,-5.379853 -0.487447,-0.259804 -0.886305,-0.497876 -0.886305,-0.529065 0,-0.03116 0.299704,-0.285545 0.66602,-0.565247 0.593961,-0.453526 0.760659,-0.508142 1.541666,-0.510011 1.159418,-0.0017 2.046294,-0.28786 3.085915,-0.993867 l 0.85562,-0.580746 0.517443,0.631138 c 0.557576,0.680439 1.253944,1.088178 1.858531,1.088178 0.6945,0 1.512426,-0.538778 1.808784,-1.191541 0.386073,-0.850387 0.348254,-1.220713 -0.222548,-2.168603 -0.276089,-0.458486 -0.502257,-0.855149 -0.502257,-0.881461 0,-0.07754 1.323357,-1.064925 1.427323,-1.064925 0.05233,0 0.302657,0.294358 0.556204,0.654078 0.550218,0.780594 1.262062,1.126617 2.118864,1.030032 1.081805,-0.121929 1.778099,-0.911013 1.778099,-2.014534 0,-0.499124 -0.113316,-0.813015 -0.501935,-1.390504 -0.575191,-0.854711 -0.602222,-1.029984 -0.239022,-1.555552 0.758027,-1.096908 0.996744,-3.226328 0.504522,-4.501293 -0.403474,-1.045111 -3.187617,-4.821434 -3.994507,-5.417961 -1.513855,-1.119186 -3.324805,-1.417602 -4.824939,-0.795218 -0.171891,0.07134 -0.363398,-0.08076 -0.709941,-0.563305 -0.609869,-0.849213 -1.218862,-1.222226 -1.994836,-1.222226 z m 4.372413,5.642121 c 0.115489,-0.0074 0.219117,0.01422 0.331721,0.05588 0.302228,0.111803 2.050055,2.332633 2.697354,3.427325 0.506482,0.856571 0.346122,1.124733 -1.461893,2.447032 -0.842741,0.616349 -2.774876,2.033811 -4.293923,3.149872 -1.519047,1.116044 -2.892069,2.07034 -3.051031,2.120798 -0.158971,0.05042 -0.576696,0.01943 -0.928299,-0.06911 -0.439993,-0.110786 -0.800049,-0.116663 -1.154716,-0.01877 -0.555435,0.153367 -0.283525,-0.05166 -18.728361,14.125001 -6.658015,5.117329 -12.192577,9.337417 -12.298773,9.378236 -0.106183,0.04075 -0.193152,-0.0086 -0.193152,-0.109827 0,-0.101272 -0.254884,-0.711099 -0.566538,-1.354968 -0.435398,-0.899539 -0.784063,-1.374253 -1.505814,-2.049418 -0.516618,-0.483269 -0.939276,-0.905301 -0.939276,-0.937987 0,-0.03273 1.209892,-0.854793 2.688953,-1.826878 1.479048,-0.972078 4.27053,-2.808041 6.203165,-4.079775 1.932629,-1.271733 4.385331,-2.883694 5.450259,-3.582369 1.064916,-0.698666 3.542207,-2.329037 5.505169,-3.622734 1.962948,-1.293697 4.189494,-2.756293 4.947998,-3.250325 7.956875,-5.182526 7.903143,-5.139194 7.904393,-6.40181 6.88e-4,-0.817479 -0.0044,-0.812453 3.442828,-3.315572 1.45943,-1.059742 3.271305,-2.383057 4.026167,-2.940567 1.123988,-0.830127 1.5773,-1.12088 1.923769,-1.144059 z M 45.183714,69.83565 c 1.407069,-0.01091 2.422305,0.205213 3.729005,0.793928 0.923703,0.416155 2.820407,1.714059 3.647611,2.496117 0.841268,0.795367 1.142639,0.451452 -2.452843,2.800717 -1.406447,0.918965 -4.041637,2.64516 -5.855944,3.835916 -2.02795,1.330987 -3.437235,2.165263 -3.657946,2.165693 -0.57513,0.0017 -2.220287,0.517376 -3.042636,0.954461 -0.952834,0.506457 -2.499376,2.05065 -3.015504,3.010989 -0.72207,1.34351 -1.016514,2.555312 -1.022933,4.21059 -0.0082,2.123691 0.39513,3.421001 1.595285,5.132756 1.118223,1.5949 2.813446,2.652559 4.963824,3.096579 1.410368,0.291068 2.063013,0.291737 3.483205,0.0041 2.535969,-0.513441 4.574554,-2.021998 5.706072,-4.222551 0.619089,-1.203984 -0.316606,-0.415677 8.656977,-7.291671 1.685536,-1.291523 3.113118,-2.292037 3.172159,-2.223186 0.223488,0.260565 0.871042,1.895341 1.242894,3.137274 0.328938,1.098611 0.387295,1.5578 0.389858,3.083659 0.0027,1.476194 -0.05067,1.940227 -0.30168,2.627577 -0.718632,1.967897 -2.165996,3.643824 -3.812016,4.414086 -0.56995,0.266714 -1.729036,0.592459 -3.049096,0.85724 -3.58218,0.718497 -4.716142,1.214323 -6.057817,2.648576 -0.772987,0.82632 -1.796285,2.61317 -2.090762,3.65117 -0.05595,0.19721 -0.465366,1.35903 -0.909884,2.58171 -1.392254,3.82957 -2.699393,6.09407 -4.676679,8.10078 -2.149075,2.18108 -4.278782,3.49654 -6.611758,4.08431 v 3.2e-4 c -6.35271,1.60051 -13.49714,-3.23931 -20.422483,-13.83463 -1.773238,-2.71294 -3.31138,-6.133212 -3.953489,-8.791342 -0.24214,-1.002431 -0.201864,-1.510698 0.07978,-1.007432 0.460812,0.823431 1.956113,2.631222 2.598838,3.142118 0.981198,0.779966 2.538687,1.519496 3.628553,1.722876 1.191475,0.22233 3.393275,0.0837 4.407946,-0.27779 0.452169,-0.16106 1.291029,-0.60319 1.864341,-0.982549 0.573307,-0.379361 1.084111,-0.709256 1.135013,-0.732889 0.08072,-0.03745 2.712312,3.470618 6.361758,8.480298 0.819515,1.12497 1.288719,1.63355 1.701873,1.84432 1.497918,0.76419 3.214506,-0.55745 2.900195,-2.23288 -0.09627,-0.51318 -0.615948,-1.25418 -6.136306,-8.748387 l -2.416989,-3.280687 0.08947,-1.4522 c 0.105471,-1.71582 -0.135786,-3.090081 -0.786499,-4.480619 -0.232761,-0.497405 -1.463385,-2.361102 -2.734497,-4.141474 -1.271117,-1.780364 -2.341765,-3.316812 -2.379199,-3.414405 -0.147829,-0.385255 2.330819,-0.748174 6.534561,-0.956718 4.090422,-0.202931 5.106133,-0.372368 6.292636,-1.048773 1.550768,-0.884056 2.411739,-1.911427 4.047482,-4.83075 1.220282,-2.177836 1.977086,-3.098711 3.110465,-3.785532 1.32747,-0.804427 2.479467,-1.12961 4.047158,-1.141794 z m 32.32946,3.057487 c 1.262423,0 2.664634,0.74862 3.39761,1.813959 0.230962,0.335689 0.528308,1.022692 0.660529,1.526809 0.22627,0.862845 0.22574,0.970696 -0.0097,1.840444 -0.149565,0.552525 -0.445865,1.171396 -0.73708,1.539399 -0.415437,0.524989 -4.379285,3.646467 -11.801358,9.293282 -1.625009,1.236345 -2.039083,1.489859 -2.039083,1.249679 0,-0.04976 -0.102596,-0.735824 -0.228036,-1.524866 -0.269494,-1.695072 -0.979067,-3.91739 -1.77907,-5.571708 -0.316084,-0.653615 -0.526283,-1.234841 -0.467055,-1.291341 0.05924,-0.05654 2.528002,-1.947758 5.486112,-4.202853 5.589077,-4.260791 6.252021,-4.672804 7.517119,-4.672804 z M 41.907873,85.968406 c 0.144153,0.0041 0.290654,0.01323 0.439277,0.02877 1.558095,0.162856 2.525799,0.811378 3.238049,2.170545 0.319481,0.609638 0.376075,0.899655 0.376615,1.936045 0.0011,1.83832 -0.683981,3.103175 -2.051679,3.788434 -0.758746,0.380198 -2.070136,0.536945 -3.068799,0.366922 -0.718319,-0.122301 -1.731167,-0.641069 -2.133721,-1.092694 -0.802082,-0.89987 -1.203543,-2.537532 -0.960271,-3.918605 0.363851,-2.065637 1.998254,-3.333749 4.160529,-3.279398 z"
     id="path494" /><path
     style="fill:#000000;stroke-width:1"
     d="m 106.25494,29.063257 -0.0249,4.090961 -0.0245,4.091209 -0.3312,-0.0216 c -0.1821,-0.01183 -0.6568,-0.04889 -1.05497,-0.08249 -0.69765,-0.05886 -1.34177,0.02596 -2.01909,0.266134 -2.49296,0.883988 -3.659408,3.158592 -2.68394,5.23382 0.48664,1.035274 1.73025,1.976624 3.10941,2.353227 0.7695,0.210127 2.33294,0.14806 3.11088,-0.123492 1.4291,-0.498845 2.40826,-1.427348 2.84548,-2.698171 0.1825,-0.53046 0.19224,-0.781814 0.19224,-4.992482 0,-3.63173 0.023,-4.442965 0.12742,-4.483045 0.16986,-0.06519 1.28347,0.3598 2.04806,0.781465 0.75317,0.415365 1.39507,0.461107 1.9199,0.13675 0.88938,-0.549665 1.04579,-1.759356 0.31696,-2.452172 -0.59419,-0.564822 -1.8183,-1.232093 -2.97389,-1.620868 -1.00052,-0.336603 -1.98462,-0.479225 -3.30581,-0.479239 z"
     id="path492" /><path
     style="fill:#000000;stroke-width:1"
     d="m 41.86653,23.72744 c -0.253772,-8.11e-4 -0.510549,0.005 -0.770349,0.0168 -3.528136,0.161081 -6.288627,1.378004 -8.508722,3.751292 -3.94096,4.212906 -4.409728,11.10041 -1.094638,16.082688 1.71341,2.57509 4.301549,4.255412 7.595285,4.930875 4.084804,0.83769 8.249519,-0.301525 11.217701,-3.068147 2.510307,-2.339843 3.850887,-5.196514 4.011306,-8.547161 0.162039,-3.384553 -0.850047,-6.395622 -2.958335,-8.799742 -2.553983,-2.91235 -5.685676,-4.354134 -9.492248,-4.366603 z m -0.09367,4.130492 c 3.052345,0 5.908307,1.622841 7.319768,4.159238 1.820426,3.27133 1.380894,7.171733 -1.111757,9.864019 -1.028749,1.111146 -2.13997,1.839644 -3.522933,2.309431 -1.036069,0.35197 -3.062444,0.502089 -4.238373,0.314277 -3.13802,-0.50119 -5.420704,-2.513339 -6.395027,-5.637597 -0.492791,-1.580186 -0.458575,-3.916316 0.08075,-5.515182 1.194646,-3.541589 3.990808,-5.494186 7.867572,-5.494186 z"
     id="path488" /><path
     style="fill:#000000;stroke-width:1"
     d="m 67.584878,11.250372 c -29.863078,-7.5e-4 -59.7275924,0.06646 -60.1346952,0.202519 -1.1990281,0.400732 -1.9680233,1.477473 -1.9680233,2.756138 0,0.89751 0.4076617,1.654583 1.2112401,2.25 l 0.4667324,0.346254 58.489345,0.08269 58.489033,0.08269 0.0417,45.10562 0.0417,45.105957 H 87.608778 c -33.233762,0 -27.030976,0.0242 -27.122092,0.26163 -0.130767,0.34077 -0.130767,4.9244 0,5.26519 0.09114,0.23752 -5.950815,0.2613 28.948971,0.2613 42.601203,0 38.943743,-0.10102 39.862083,1.10304 0.433,0.56768 0.46666,0.72846 0.52228,2.48061 0.0327,1.03054 0.0329,1.89215 3.3e-4,1.91441 -0.0326,0.0222 -17.80797,0.0796 -39.500975,0.12403 l -35.473192,0.0833 -0.04747,2.39793 c -0.02611,1.31886 -0.006,2.56538 0.04457,2.77003 l 0.09205,0.37241 h 36.937656 c 36.252001,0 40.987751,-0.0286 41.621781,-0.25226 0.87215,-0.30772 1.24998,-0.6348 1.65891,-1.43604 0.27946,-0.5476 0.31299,-1.00878 0.31299,-4.28812 0,-2.26508 -0.0712,-3.90081 -0.18605,-4.26486 -0.49615,-1.57268 -0.70886,-2.04622 -1.34367,-2.9916 -0.77524,-1.15453 -1.58363,-1.8715 -3.02035,-2.67927 l -0.98998,-0.55652 -0.0827,-47.207382 c -0.0778,-44.400017 -0.0996,-47.23863 -0.3695,-47.731873 -0.32787,-0.599299 -0.94965,-1.076 -1.76357,-1.352067 -0.40119,-0.136243 -30.262894,-0.205015 -60.125972,-0.20575 z"
     id="path425" /><path
     style="fill:#000000;stroke-width:1"
     d="m 104.66743,73.070645 -0.0249,4.090961 -0.0245,4.091209 -0.3312,-0.0216 c -0.1821,-0.01183 -0.6568,-0.04889 -1.05497,-0.08249 -0.69765,-0.05886 -1.34177,0.02596 -2.01909,0.266134 -2.492953,0.883988 -3.659403,3.158592 -2.683923,5.23382 0.486629,1.035274 1.730233,1.976624 3.109393,2.353227 0.7695,0.210127 2.33294,0.14806 3.11088,-0.123492 1.4291,-0.498845 2.40826,-1.427348 2.84548,-2.698171 0.1825,-0.53046 0.19224,-0.781814 0.19224,-4.992482 0,-3.63173 0.023,-4.442965 0.12742,-4.483045 0.16986,-0.06519 1.28347,0.3598 2.04806,0.781465 0.75317,0.415365 1.39507,0.461107 1.9199,0.13675 0.88938,-0.549665 1.04579,-1.759356 0.31696,-2.452172 -0.59419,-0.564822 -1.8183,-1.232093 -2.97389,-1.620868 -1.00052,-0.336603 -1.98462,-0.479225 -3.30581,-0.479239 z"
     id="path492-5" /><path
     style="fill:#000000;stroke-width:1"
     d="m 74.865221,24.73903 -0.0249,4.090961 -0.0245,4.091209 -0.3312,-0.0216 c -0.1821,-0.01183 -0.6568,-0.04889 -1.05497,-0.08249 -0.69765,-0.05886 -1.34177,0.02596 -2.01909,0.266134 -2.49296,0.883988 -3.65941,3.158592 -2.68393,5.23382 0.48663,1.035274 1.73024,1.976624 3.1094,2.353227 0.7695,0.210127 2.33294,0.14806 3.11088,-0.123492 1.4291,-0.498845 2.40826,-1.427348 2.84548,-2.698171 0.1825,-0.53046 0.19224,-0.781814 0.19224,-4.992482 0,-3.63173 0.023,-4.442965 0.12742,-4.483045 0.16986,-0.06519 1.28347,0.3598 2.04806,0.781465 0.75317,0.415365 1.39507,0.461107 1.9199,0.13675 0.88938,-0.549665 1.04579,-1.759356 0.31696,-2.452172 -0.59419,-0.564822 -1.8183,-1.232093 -2.97389,-1.620868 -1.00052,-0.336603 -1.98462,-0.479225 -3.30581,-0.479239 z"
     id="path492-3" /></svg>
