<?xml version="1.0" encoding="UTF-8" standalone="no"?>
<!-- Created with Inkscape (http://www.inkscape.org/) -->

<svg
   width="512"
   height="512"
   viewBox="0 0 135.46666 135.46667"
   version="1.1"
   id="svg5"
   xml:space="preserve"
   sodipodi:docname="virtual.svg"
   inkscape:version="1.2.2 (1:1.2.2+202212051550+b0a8486541)"
   xmlns:inkscape="http://www.inkscape.org/namespaces/inkscape"
   xmlns:sodipodi="http://sodipodi.sourceforge.net/DTD/sodipodi-0.dtd"
   xmlns="http://www.w3.org/2000/svg"
   xmlns:svg="http://www.w3.org/2000/svg"><sodipodi:namedview
     id="namedview6"
     pagecolor="#ffffff"
     bordercolor="#666666"
     borderopacity="1.0"
     inkscape:showpageshadow="2"
     inkscape:pageopacity="0.0"
     inkscape:pagecheckerboard="0"
     inkscape:deskcolor="#d1d1d1"
     showgrid="false"
     inkscape:zoom="0.58764441"
     inkscape:cx="493.49572"
     inkscape:cy="357.35897"
     inkscape:window-width="1469"
     inkscape:window-height="1022"
     inkscape:window-x="449"
     inkscape:window-y="0"
     inkscape:window-maximized="0"
     inkscape:current-layer="svg5" /><defs
     id="defs2" /><path
     style="fill:#000000;stroke-width:1"
     d="m 96.554451,64.78787 c -0.827387,-0.169215 -1.427897,-0.673767 -1.884347,-1.583226 -0.72103,-1.436629 -0.200726,-2.634909 1.711856,-3.94241 2.106508,-1.440081 2.838421,-2.521477 3.063093,-4.525612 l 0.122235,-1.090367 -2.77026,-0.0013 c -1.523651,-7.38e-4 -3.275953,-0.08338 -3.894022,-0.183657 -3.250968,-0.527498 -6.113824,-3.300852 -6.79638,-6.583938 -0.266208,-1.280458 -0.268417,-32.702435 -0.0026,-34.153315 0.432033,-2.35638 2.36317,-4.8939945 4.525212,-5.9463696 2.245301,-1.0928223 6.095936,-1.0203336 33.555182,-1.0203336 h 4.04265 l 1.13397,0.3981494 c 1.47028,0.5162244 2.30262,1.0375452 3.44407,2.1571144 1.09262,1.0716723 1.87637,2.3720024 2.33132,3.8679414 0.31109,1.022882 0.32808,1.930221 0.32935,17.586239 l 9.1e-4,16.50771 -0.4417,1.35314 c -0.88309,2.705247 -2.66928,4.555228 -5.40268,5.595567 -0.82722,0.314848 0.23784,0.370905 -5.53355,0.383418 l -8.36543,0.05141 -0.29382,0.530662 c -2.30547,4.163862 -5.31669,7.201823 -8.61262,8.689194 -3.15449,1.423551 -8.121698,2.347985 -10.263041,1.910029 z m 9.925459,-8.168667 c 0,2.279213 3.56091,-3.369469 4.46637,-5.524759 0.72527,-1.726369 1.19967,-2.414706 1.89,-2.74229 0.55072,-0.26133 -3.81471,-0.288945 9.58995,-0.292416 6.00753,-0.335208 5.30911,-0.01812 6.00753,-0.335208 1.46249,-0.663994 1.36362,0.626918 1.36362,-17.804685 0,-18.246795 0.0948,-16.890126 -1.25103,-17.916633 l -0.64081,-0.48878 -3.44563,-0.0484 c -13.53547,-0.190129 -30.603735,-0.007 -30.812235,0.04356 -0.575744,0.139674 -1.427917,0.929627 -1.809297,1.677192 -0.331467,0.649728 -0.341159,1.128855 -0.337441,16.682492 0.0039,15.35402 0.01748,16.043616 0.335211,16.743435 0.598045,1.317239 0.757355,1.351442 6.757866,1.450856 4.972166,0.08238 5.291866,0.107242 5.746366,0.446927 0.91376,0.682927 1.18523,1.226192 1.25822,2.517948 0.07,1.238731 -0.31345,3.834011 -0.76787,5.197175 -0.13707,0.411151 -0.24921,0.871074 -0.24921,1.022053 0,0.412357 1.89839,-2.036935 1.89839,-0.62847 z"
     id="path333"
     sodipodi:nodetypes="cssscccsccscsssccssscssccssscssscscscssssssss" /><path
     style="fill:#000000;stroke-width:1"
     d="m 110.17076,95.865303 v -2.800202 l 2.74773,0.04806 2.74772,0.04807 v 2.704112 2.704108 l -2.74772,0.04804 -2.74773,0.04804 z"
     id="path331" /><path
     style="fill:#000000;stroke-width:1"
     d="m 30.966424,126.75593 c 0,-3.31599 0.240248,-4.85675 1.002983,-6.43232 0.700409,-1.44682 2.324316,-2.99716 3.993853,-3.81292 l 1.370913,-0.66985 5.230855,-0.0556 c 3.779762,-0.0401 5.267219,-0.11275 5.36194,-0.26169 0.155733,-0.24489 0.183818,-7.64305 0.03054,-8.04251 -0.09577,-0.24956 -2.161287,-0.27614 -21.589287,-0.27785 -23.209418,-0.002 -22.2783318,0.0341 -23.7763331,-0.92391 -0.9835261,-0.629 -1.5508104,-1.29718 -2.1022829,-2.47615 L -2.25e-5,102.7564 V 59.228938 15.701446 L 0.48747114,14.708748 C 0.77396835,14.125334 1.3578556,13.366105 1.903651,12.867277 3.6206759,11.298012 0.67513506,11.427203 34.737326,11.427203 H 78.56978 v 2.791342 2.791342 H 35.240667 5.6698859 v 33.845024 33.84502 H 64.897537 124.12519 l 0.0448,-12.691873 0.0447,-12.69189 2.63546,-0.04802 c 2.10264,-0.03831 2.67687,0.0018 2.84022,0.198674 0.15483,0.18656 0.19283,5.493101 0.15587,21.768156 l -0.0489,21.521452 -0.48964,1.04675 c -0.55146,1.17896 -1.11874,1.84715 -2.10227,2.47615 -1.49801,0.95805 -0.56692,0.92187 -23.77633,0.92391 -19.42801,0.002 -21.493533,0.0283 -21.589294,0.27784 -0.138118,0.35993 -0.138118,7.63664 0,7.99658 0.09305,0.24247 0.694075,0.27595 4.953699,0.27595 4.362406,0 4.961448,0.0351 5.982714,0.35054 2.146945,0.66313 4.1219,2.33185 5.083144,4.29495 0.729383,1.48961 0.971517,3.07391 0.971517,6.35683 v 2.95439 H 64.898677 30.966424 Z m 62.10737,-3.03864 c 0,-0.506 -0.619374,-1.44106 -1.277608,-1.9288 l -0.492533,-0.36496 -26.184719,-0.0453 c -25.91775,-0.0448 -26.192108,-0.0417 -26.909012,0.30531 -0.75746,0.36668 -1.486354,1.3844 -1.486354,2.07532 v 0.36877 H 64.898677 93.073794 Z M 76.151273,111.47938 v -4.27425 H 64.898677 53.64608 v 4.27425 4.27423 H 64.898677 76.151273 Z M 124.12747,95.952533 V 90.282618 H 64.898677 5.6698859 v 5.669915 5.669907 H 64.898677 124.12747 Z"
     id="path247"
     sodipodi:nodetypes="sssccsscsscccccscccccccccccscscsscsssssscccssscccscccscccccccccccccccccc" /><path
     style="fill:#000000;stroke-width:0.999996"
     d="m 104.90878,39.693868 c -2.78689,-0.74274 -4.29965,-2.001965 -4.78944,-3.986749 -0.147391,-0.597252 -0.156951,-0.825248 -0.0557,-1.329201 0.37409,-1.862738 1.8203,-3.304726 4.04408,-4.032269 0.65154,-0.213155 0.96777,-0.244528 2.46471,-0.244528 1.48964,0 1.81482,0.03194 2.45307,0.240934 0.40467,0.132513 0.77907,0.240932 0.83199,0.240932 0.0557,0 0.0949,-2.669676 0.0932,-6.337915 -0.004,-6.921837 -0.0276,-6.641731 0.61475,-7.119753 0.30028,-0.22349 1.04887,-0.344874 1.47198,-0.238681 0.14974,0.03758 0.56915,0.333237 0.93201,0.657012 0.756,0.674573 1.38634,0.913185 2.3967,0.907255 1.23394,-0.0072 2.12956,-0.319433 3.15075,-1.098268 0.97339,-0.742379 2.08024,-0.649167 2.6177,0.220447 0.36395,0.588888 0.31871,1.235917 -0.15297,2.187697 -1.06225,2.143505 -2.88568,3.124073 -6.38627,3.434287 l -1.42212,0.126026 v 6.026385 c 0,6.36886 -0.0199,6.657622 -0.51295,7.452313 -1.21317,1.955305 -3.40813,3.025766 -6.15937,3.003872 -0.66903,-0.0053 -1.38546,-0.05473 -1.59207,-0.109796 z"
     id="path327" /><g
     id="g380"
     transform="matrix(0.97656329,0,0,0.97656329,-15.567233,-128.60707)"
     style="stroke-width:1.024"><path
       id="path488"
       style="fill:#000000;stroke-width:1.024"
       d="m 45.603822,153.95619 c -0.253772,-8.1e-4 -0.510549,0.005 -0.770349,0.0168 -3.528136,0.16108 -6.288627,1.378 -8.508722,3.75129 -3.94096,4.21291 -4.409728,11.10041 -1.094638,16.08269 1.71341,2.57509 4.301549,4.25541 7.595285,4.93087 4.084804,0.83769 8.249519,-0.30152 11.217701,-3.06814 2.510307,-2.33985 3.850887,-5.19652 4.011306,-8.54716 0.162039,-3.38456 -0.850047,-6.39563 -2.958335,-8.79975 -2.553983,-2.91235 -5.685676,-4.35413 -9.492248,-4.3666 z m -0.09367,4.13049 c 3.052345,0 5.908307,1.62284 7.319768,4.15924 1.820426,3.27133 1.380894,7.17173 -1.111757,9.86402 -1.028749,1.11114 -2.13997,1.83964 -3.522933,2.30943 -1.036069,0.35197 -3.062444,0.50209 -4.238373,0.31428 -3.13802,-0.50119 -5.420704,-2.51334 -6.395027,-5.6376 -0.492791,-1.58019 -0.458575,-3.91632 0.08075,-5.51518 1.194646,-3.54159 3.990808,-5.49419 7.867572,-5.49419 z m 42.708907,19.50581 c -1.750121,0 -2.626395,1.84616 -1.590761,3.35143 0.243847,0.35442 0.443477,0.70223 0.443477,0.77325 0,0.15676 -1.204444,1.03844 -1.418591,1.03844 -0.0839,0 -0.26645,-0.17745 -0.40569,-0.39438 -0.446487,-0.69563 -0.710054,-0.9103 -1.356901,-1.10498 -0.522567,-0.15726 -0.727997,-0.1578 -1.177644,-0.003 -1.514681,0.52073 -1.929278,1.98975 -0.944764,3.34884 0.23482,0.32416 0.426247,0.63848 0.425707,0.69833 -7.5e-4,0.0598 -0.417387,0.43148 -0.926024,0.8259 -0.958314,0.74311 -1.548761,1.60231 -1.865621,2.71414 -0.182717,0.64118 0.084,0.43961 -5.27065,3.97545 -1.319107,0.87107 -2.452488,1.56164 -2.51873,1.53457 -0.06624,-0.027 -0.807726,-0.79117 -1.647609,-1.69832 -1.726726,-1.86503 -2.662339,-2.71691 -4.386305,-3.99322 -1.255032,-0.92915 -2.886043,-1.93825 -2.980298,-1.84399 -0.03033,0.0303 0.165136,0.79137 0.434109,1.69121 0.26898,0.89985 0.664696,2.24406 0.879521,2.98708 l 0.390504,1.35078 1.8469,1.8666 c 1.015707,1.0266 1.846576,1.91631 1.846576,1.97707 0,0.0607 -0.145192,0.21531 -0.322674,0.34367 -0.852518,0.61653 -5.300697,3.50903 -5.396319,3.50903 -0.120546,0 -0.232133,-0.34747 -1.312014,-4.08752 -0.409977,-1.41989 -1.022266,-3.51738 -1.360466,-4.66118 -0.338194,-1.1438 -0.884387,-3.01576 -1.214148,-4.15956 -0.878014,-3.04547 -0.881253,-3.05169 -1.527777,-3.27745 -0.704307,-0.24595 -3.829322,-0.8829 -3.914406,-0.79781 -0.06489,0.0649 0.288657,1.37208 1.277131,4.72093 0.302694,1.02548 0.820899,2.80032 1.151487,3.94412 0.33058,1.14381 0.888882,3.03845 1.240633,4.21028 0.351742,1.17183 0.612109,2.15791 0.578488,2.19153 -0.03364,0.0336 -0.40886,-0.16843 -0.833656,-0.44928 -1.10541,-0.73084 -2.694184,-1.45975 -4.124354,-1.8918 -1.607362,-0.48558 -4.402144,-0.55357 -5.938631,-0.14471 -2.388597,0.63564 -4.284618,1.69615 -5.659561,3.16603 -0.982844,1.0507 -1.588611,1.94197 -2.682817,3.94638 -1.311836,2.40306 -1.808751,2.92054 -3.045543,3.1728 -0.38038,0.0776 -2.111473,0.20433 -3.8469,0.28166 -3.722313,0.16586 -6.270314,0.54719 -8.390181,1.25548 -1.81273,0.60568 -4.159238,1.73073 -4.159238,1.9942 8.595105,21.81911 -1.096822,-0.0888 -2.331395,-13.79458 0.72932,-0.46993 2.439641,-1.58444 3.800711,-2.47675 4.711908,-3.08911 6.610003,-4.0844 9.430878,-4.94445 3.982676,-1.21426 5.78342,-1.3934 14.003878,-1.3934 3.34147,0 6.075259,-0.0338 6.075259,-0.0752 0,-0.39304 -1.092677,-3.76795 -1.264212,-3.90472 -0.170162,-0.1357 -1.395065,-0.17801 -5.037791,-0.17313 -8.704809,0.0112 -11.248536,0.29322 -15.498386,1.71738 -3.388996,1.13568 -4.784143,1.88714 -10.864988,5.85142 -5.803933,26.55389 12.326017,33.88288 49.680827,33.41727 l -4.603185,-0.0355 c 0.498174,-0.13515 10.420967,0.27132 10.894261,0.0174 1.045799,-0.56102 13.493832,-10.07498 14.448569,-11.04297 0.779184,-0.78999 1.251901,-1.54626 1.778418,-2.84463 0.449547,-1.10858 0.617757,-3.43709 0.34367,-4.75743 -0.43613,-2.10085 -2.134688,-4.38806 -3.995459,-5.37985 -0.487447,-0.25981 -0.886304,-0.49788 -0.886304,-0.52907 0,-0.0312 0.299707,-0.28554 0.666017,-0.56524 0.593954,-0.45353 0.760654,-0.50815 1.541661,-0.51002 1.159411,-0.002 2.046278,-0.28786 3.085892,-0.99386 l 0.855614,-0.58075 0.517447,0.63114 c 0.557567,0.68044 1.253934,1.08818 1.858521,1.08818 0.694494,0 1.512411,-0.53878 1.808768,-1.19154 0.38608,-0.85039 0.34826,-1.22072 -0.222547,-2.16861 -0.27608,-0.45848 -0.502247,-0.85515 -0.502247,-0.88146 0,-0.0775 1.323341,-1.06492 1.427311,-1.06492 0.0523,0 0.302657,0.29435 0.556197,0.65407 0.550217,0.7806 1.262064,1.12662 2.118858,1.03004 1.081794,-0.12193 1.778091,-0.91102 1.778091,-2.01454 0,-0.49912 -0.11332,-0.81301 -0.50194,-1.3905 -0.575184,-0.85471 -0.602214,-1.02999 -0.239017,-1.55555 0.758027,-1.09691 0.996734,-3.22633 0.504517,-4.5013 -0.403467,-1.04511 -3.187592,-4.82143 -3.994476,-5.41796 -1.513854,-1.11918 -3.324792,-1.4176 -4.824913,-0.79522 -0.17189,0.0713 -0.3634,-0.0808 -0.709937,-0.5633 -0.609867,-0.84921 -1.218864,-1.22223 -1.994828,-1.22223 z m 4.372386,5.64212 c 0.115487,-0.007 0.219117,0.0142 0.331717,0.0559 0.302227,0.11181 2.050048,2.33264 2.697345,3.42733 0.506477,0.85657 0.346117,1.12473 -1.461891,2.44703 -0.842737,0.61635 -2.774855,2.03381 -4.293896,3.14987 -1.519041,1.11605 -2.892055,2.07034 -3.051015,2.1208 -0.158967,0.0504 -0.576694,0.0194 -0.928294,-0.0691 -0.439987,-0.11078 -0.800044,-0.11666 -1.154704,-0.0188 -0.555437,0.15337 -0.283527,-0.0517 -18.728305,14.125 -6.658015,5.11733 -12.192577,9.33742 -12.298773,9.37824 -0.106183,0.0408 -0.193152,-0.009 -0.193152,-0.10983 0,-0.10127 -0.254884,-0.7111 -0.566538,-1.35497 -0.435398,-0.89954 -0.784063,-1.37425 -1.505814,-2.04941 -0.516618,-0.48327 -0.939276,-0.90531 -0.939276,-0.93799 0,-0.0327 1.209892,-0.8548 2.688953,-1.82688 1.479048,-0.97208 4.27053,-2.80804 6.203165,-4.07977 1.932629,-1.27174 4.385331,-2.8837 5.450259,-3.58237 1.064916,-0.69867 3.542207,-2.32904 5.505169,-3.62274 1.962948,-1.29369 4.189492,-2.75629 4.947996,-3.25032 7.956825,-5.18253 7.903095,-5.1392 7.904345,-6.40181 6.9e-4,-0.81748 -0.004,-0.81246 3.442812,-3.31557 1.459421,-1.05975 3.271282,-2.38306 4.026136,-2.94057 1.123984,-0.83013 1.577291,-1.12088 1.923761,-1.14406 z M 48.921006,200.0644 c 1.407069,-0.0109 2.422305,0.20521 3.729005,0.79393 0.923704,0.41615 2.820408,1.71406 3.647611,2.49611 0.841268,0.79537 1.142639,0.45146 -2.452843,2.80072 -1.406447,0.91897 -4.041637,2.64516 -5.855944,3.83592 -2.02795,1.33098 -3.437235,2.16526 -3.657946,2.16569 -0.57513,0.002 -2.220287,0.51738 -3.042636,0.95446 -0.952834,0.50646 -2.499376,2.05065 -3.015504,3.01099 -0.72207,1.34351 -1.016514,2.55531 -1.022933,4.21059 13.231375,0.1789 19.635803,1.06946 24.405363,-3.28089 1.685536,-1.29152 3.113118,-2.29203 3.172159,-2.22318 0.223488,0.26056 0.871042,1.89534 1.242894,3.13727 -24.585596,1.51059 -50.129398,7.55183 -44.780942,-3.9664 -1.271117,-1.78036 3.636847,-2.07425 3.599413,-2.17184 -0.147829,-0.38526 2.330819,-0.74818 6.534561,-0.95672 4.090422,-0.20293 5.106133,-0.37237 6.292636,-1.04877 1.550768,-0.88406 2.411739,-1.91143 4.047482,-4.83075 1.220282,-2.17784 1.977086,-3.09871 3.110465,-3.78554 1.32747,-0.80442 2.479467,-1.12961 4.047158,-1.14179 z m 32.329422,3.05749 c 1.262414,0 2.664615,0.74862 3.397592,1.81396 0.230957,0.33568 0.528307,1.02269 0.660524,1.5268 0.22627,0.86285 0.22574,0.9707 -0.01,1.84045 -0.149567,0.55252 -0.445867,1.17139 -0.737074,1.5394 -0.41544,0.52499 -4.379266,3.64646 -11.801303,9.29328 -1.625009,1.23634 -2.039083,1.48986 -2.039083,1.24968 0,-0.0498 -0.102596,-0.73583 -0.228036,-1.52487 -0.269494,-1.69507 -0.979067,-3.91739 -1.77907,-5.57171 -0.316084,-0.65361 -0.526283,-1.23484 -0.467055,-1.29134 0.05924,-0.0565 2.528002,-1.94775 5.486112,-4.20285 5.589055,-4.26079 6.251989,-4.6728 7.517083,-4.6728 z m -35.605263,13.07527 c 0.144153,0.004 0.290654,0.0132 0.439277,0.0288 1.558095,0.16285 2.525799,0.81137 3.238049,2.17054 0.753737,5.50761 -8.613151,5.74636 -7.837855,1.0801 0.363851,-2.06563 1.998254,-3.33375 4.160529,-3.2794 z"
       sodipodi:nodetypes="ccsssssscsssccssscssssscscssccsscscccscssssssssscsscsscssccssssccscccsssssssccccssssscssssssscccccsssccccssssssssscccscccscssccsccccccssscccssccssssssssscccccc" /></g></svg>
